<?xml version="1.0" encoding="iso-8859-1"?>
<!-- Generator: Adobe Illustrator 19.0.0, SVG Export Plug-In . SVG Version: 6.00 Build 0)  -->
<svg version="1.1" id="Capa_1" xmlns="http://www.w3.org/2000/svg" xmlns:xlink="http://www.w3.org/1999/xlink" x="0px" y="0px"
	 viewBox="0 0 480 480" style="enable-background:new 0 0 480 480;" xml:space="preserve">
<g>
	<g>
		<path d="M446.872,283.56c-0.152-1.536-0.232-3.016-0.416-4.584l0.048,0.08l-0.048-0.088
			C438.33,210.814,396.96,151.116,336,119.576V80h-48V64h-96v16h-48v39.576c-60.959,31.544-102.326,91.245-110.448,159.4
			c-0.184,1.6-0.264,3.048-0.416,4.584L0,316.688V416h480v-99.312L446.872,283.56z M336,137.736
			c49.416,28.41,83.563,77.405,93.112,133.6C376.303,265.6,336.223,221.12,336,168V137.736z M144,137.736V168
			c-0.231,53.113-40.309,97.585-93.112,103.32C60.441,215.13,94.587,166.143,144,137.736z M48,304c0-5.392,0.336-10.904,0.8-16.536
			C111.327,282.688,159.711,230.708,160,168V96h32v216h16V80h64v232h16V96h32v72c0.289,62.708,48.674,114.688,111.2,119.464
			c0.496,5.6,0.8,11.144,0.8,16.536v32h-32v-32h-64v32H144v-32H80v32H48V304z M384,320v16h-32v-16H384z M128,320v16H96v-16H128z
			 M16,323.312l16-16V336H16V323.312z M464,400H16v-48h448V400z M464,336h-16v-28.688l16,16V336z"/>
	</g>
</g>
<g>
</g>
<g>
</g>
<g>
</g>
<g>
</g>
<g>
</g>
<g>
</g>
<g>
</g>
<g>
</g>
<g>
</g>
<g>
</g>
<g>
</g>
<g>
</g>
<g>
</g>
<g>
</g>
<g>
</g>
</svg>
