<?xml version="1.0" encoding="iso-8859-1"?>
<!-- Generator: Adobe Illustrator 19.0.0, SVG Export Plug-In . SVG Version: 6.00 Build 0)  -->
<svg version="1.1" id="Layer_1" xmlns="http://www.w3.org/2000/svg" xmlns:xlink="http://www.w3.org/1999/xlink" x="0px" y="0px"
	 viewBox="0 0 512 512" style="enable-background:new 0 0 512 512;" xml:space="preserve">
<g>
	<g>
		<path d="M501.944,260.432l-68.098-68.097c-3.098-3.097-8.122-3.097-11.219,0c-3.098,3.099-3.098,8.122,0,11.22l68.097,68.097
			c1.467,1.467,2.275,3.417,2.275,5.492c0,2.076-0.808,4.026-2.275,5.492l-52.408,52.408c-3.029,3.029-7.957,3.029-10.987,0
			L173.821,81.537c-3.029-3.03-3.029-7.958-0.001-10.987l2.02-2.02l94.645,94.645c1.549,1.549,3.58,2.323,5.61,2.323
			s4.061-0.774,5.61-2.323c3.098-3.099,3.098-8.122,0-11.22L187.061,57.31l13.315-13.315c0.001-0.001,0.003-0.003,0.005-0.004
			c0.001-0.001,0.003-0.003,0.004-0.005l25.844-25.844c3.029-3.029,7.957-3.029,10.987,0l164.002,164.002
			c3.098,3.097,8.122,3.097,11.22,0c3.098-3.099,3.098-8.122,0-11.22L248.434,6.922C243.97,2.458,238.034,0,231.721,0
			c-6.313,0-12.249,2.458-16.713,6.922L194.77,27.161l-2.651-2.651c-10.097-10.097-26.527-10.097-36.624,0l-47.788,47.788
			c-10.097,10.098-10.097,26.527,0,36.625l127.287,127.288c4.243,4.243,6.581,9.884,6.581,15.885s-2.337,11.643-6.581,15.885
			l-50.299,50.299l-19.288-19.288c-2.693-2.693-6.274-4.175-10.082-4.175c-3.809,0-7.39,1.482-10.083,4.175l-9.712,9.712
			c-5.55,5.55-5.559,14.573-0.03,20.136l-53.214,48.421c-3.241,2.948-3.478,7.966-0.529,11.208c2.949,3.24,7.968,3.478,11.208,0.528
			l53.766-48.922l28.341,28.341L60.431,494.403c-0.028,0.031-0.056,0.062-0.084,0.094c-1.203,1.365-2.692,1.61-3.473,1.634
			c-0.782,0.029-2.283-0.126-3.57-1.413l-32.878-32.876c-1.287-1.287-1.438-2.789-1.413-3.57c0.024-0.781,0.27-2.27,1.634-3.474
			c0.032-0.026,0.063-0.055,0.094-0.084l50-45.497c3.24-2.948,3.477-7.966,0.528-11.208c-2.949-3.241-7.967-3.477-11.208-0.528
			l-49.958,45.459c-4.239,3.763-6.771,9.164-6.95,14.832c-0.18,5.69,2.026,11.263,6.053,15.29l32.877,32.876
			c3.875,3.874,9.18,6.063,14.646,6.061c0.214,0,0.429-0.003,0.644-0.01c5.667-0.179,11.068-2.711,14.831-6.95l114.102-125.396
			c2.689,2.674,6.256,4.148,10.05,4.148c3.809,0,7.39-1.483,10.083-4.176l9.711-9.712c2.693-2.693,4.177-6.274,4.177-10.083
			c0-3.81-1.483-7.39-4.176-10.083l-20.235-20.235l50.299-50.299c7.241-7.241,11.228-16.866,11.228-27.106
			c0-10.24-3.988-19.865-11.228-27.106L118.927,97.702c-3.911-3.91-3.911-10.274,0-14.183l47.788-47.788
			c3.91-3.911,10.274-3.911,14.184-0.001l2.651,2.651l-13.316,13.316c-0.001,0.001-0.003,0.002-0.004,0.004
			s-0.003,0.003-0.004,0.004l-7.626,7.626c-9.215,9.215-9.215,24.21,0,33.426L416.11,346.266c4.608,4.607,10.661,6.911,16.713,6.911
			c6.053,0,12.105-2.304,16.713-6.911l20.95-20.95l4.961,4.96c1.549,1.549,3.58,2.323,5.61,2.323c2.031,0,4.061-0.774,5.61-2.324
			c3.098-3.098,3.098-8.122,0-11.219l-4.96-4.96l20.237-20.237C511.16,284.643,511.16,269.648,501.944,260.432z M203.795,359.821
			l-7.439,7.438l-48.471-48.471l7.439-7.438L203.795,359.821z"/>
	</g>
</g>
<g>
</g>
<g>
</g>
<g>
</g>
<g>
</g>
<g>
</g>
<g>
</g>
<g>
</g>
<g>
</g>
<g>
</g>
<g>
</g>
<g>
</g>
<g>
</g>
<g>
</g>
<g>
</g>
<g>
</g>
</svg>
